<?xml version="1.0" standalone="no"?>
<!DOCTYPE svg PUBLIC "-//W3C//DTD SVG 20010904//EN"
 "http://www.w3.org/TR/2001/REC-SVG-20010904/DTD/svg10.dtd">
<svg version="1.0" xmlns="http://www.w3.org/2000/svg"
 width="500.000000pt" height="500.000000pt" viewBox="0 0 500.000000 500.000000"
 preserveAspectRatio="xMidYMid meet">
<metadata>
Created by potrace 1.14, written by Peter Selinger 2001-2017
</metadata>
<g transform="translate(0.000000,500.000000) scale(0.100000,-0.100000)"
fill="#000000" stroke="none">
<path d="M0 2500 l0 -2500 2500 0 2500 0 0 2500 0 2500 -2500 0 -2500 0 0
-2500z m2420 2150 c51 -51 -9 -93 -78 -53 -38 22 -62 12 -62 -26 0 -61 22 -78
55 -41 28 30 53 25 63 -12 15 -59 6 -70 -49 -63 l-49 7 0 -30 c0 -84 40 -105
96 -51 27 26 35 29 53 20 15 -9 21 -21 21 -47 0 -30 -4 -37 -34 -49 -19 -8
-74 -18 -122 -21 -105 -9 -118 0 -102 69 14 62 4 159 -21 200 -28 45 -27 63 5
83 31 21 80 31 152 33 40 1 57 -4 72 -19z m-472 -96 c12 -8 22 -23 22 -33 0
-31 -25 -43 -82 -39 -59 3 -70 -10 -48 -63 16 -37 35 -37 55 1 9 17 21 30 29
30 21 0 47 -35 49 -66 2 -27 -1 -29 -43 -34 -53 -6 -59 -20 -30 -68 27 -45 68
-42 89 5 19 43 49 53 73 23 23 -28 23 -53 1 -72 -25 -22 -110 -63 -160 -78
-55 -17 -69 -6 -76 63 -7 66 -37 137 -76 178 -35 36 -39 68 -13 92 28 25 121
64 182 76 3 1 16 -6 28 -15z m1197 0 c34 -16 65 -65 65 -102 0 -29 -38 -72
-64 -72 -12 0 -31 6 -41 14 -18 13 -18 18 -7 48 17 48 15 68 -6 68 -43 0 -95
-91 -96 -169 -1 -69 15 -82 76 -60 49 18 68 15 68 -11 0 -31 -56 -70 -101 -70
-87 0 -139 57 -139 150 0 153 128 260 245 204z m363 -200 c36 -41 32 -52 -37
-97 -19 -12 -36 -27 -38 -33 -2 -6 12 -23 32 -38 43 -33 59 -25 70 32 9 47 21
62 53 62 29 0 82 -45 82 -70 0 -10 -24 -35 -52 -56 -57 -42 -118 -124 -118
-157 0 -25 -27 -57 -49 -57 -9 0 -31 9 -48 20 -25 15 -33 27 -33 49 0 24 8 34
42 53 62 35 69 53 33 83 -47 39 -67 25 -92 -60 -11 -39 -56 -46 -96 -15 -40
31 -36 64 12 94 54 34 108 104 126 161 8 27 20 52 27 57 20 13 61 0 86 -28z
m-1963 -64 c32 -30 36 -56 13 -85 -26 -33 -52 -32 -78 5 -39 54 -72 31 -50
-36 16 -49 99 -134 130 -134 26 0 60 26 60 46 0 24 -21 26 -39 2 -19 -22 -19
-23 -40 -4 -30 27 -27 39 26 80 55 43 65 44 92 11 81 -104 -23 -252 -151 -213
-110 33 -190 187 -144 276 15 29 52 66 76 75 27 11 82 -2 105 -23z m2334 -286
c24 -30 27 -66 9 -82 -7 -5 -28 -13 -45 -17 -47 -9 -126 -72 -157 -122 -19
-33 -32 -43 -51 -43 -51 0 -98 80 -62 107 6 5 30 15 52 21 49 14 117 70 151
123 30 49 71 54 103 13z m-2679 -48 c34 -50 104 -103 155 -117 22 -6 46 -16
53 -21 20 -17 14 -56 -16 -89 -35 -39 -58 -34 -92 21 -31 50 -95 96 -163 118
-47 15 -52 20 -55 49 -2 24 3 39 23 59 34 34 63 28 95 -20z m2867 -245 c13
-19 23 -40 23 -48 0 -7 -38 -54 -85 -104 -47 -51 -84 -93 -82 -95 9 -9 94 37
121 65 17 17 40 31 52 31 33 0 64 -38 64 -77 0 -39 -21 -53 -80 -53 -27 0 -73
-15 -139 -45 -57 -26 -106 -43 -115 -39 -17 7 -36 35 -36 54 0 6 41 55 91 110
50 55 86 100 81 100 -25 0 -104 -42 -133 -69 -42 -41 -74 -40 -99 2 -37 60
-17 97 53 97 61 0 135 30 180 73 48 46 72 45 104 -2z m-3057 -31 c22 -44 111
-119 177 -150 49 -23 62 -54 43 -100 -16 -39 -45 -46 -95 -23 -29 12 -71 18
-155 19 -63 2 -118 3 -122 3 -29 3 -11 103 22 121 25 13 23 14 54 -15 28 -26
73 -41 152 -51 l49 -6 -70 51 c-38 29 -81 54 -95 57 -59 12 -74 47 -45 103 23
46 59 42 85 -9z m1387 -696 c45 -22 81 -71 103 -141 10 -32 20 -51 23 -43 49
152 96 200 197 200 57 0 93 -15 132 -57 71 -75 60 -182 -30 -277 -34 -36 -35
-38 -12 -32 14 4 54 10 90 13 56 4 71 1 109 -19 116 -62 120 -242 6 -305 -45
-25 -151 -32 -202 -12 -27 10 -27 9 9 -28 73 -75 94 -161 59 -239 -22 -47 -58
-76 -118 -94 -53 -16 -106 -3 -154 37 -32 27 -79 113 -79 146 0 32 -16 17 -27
-25 -32 -118 -131 -186 -231 -159 -149 41 -176 206 -54 333 l35 37 -38 -10
c-22 -6 -69 -9 -106 -7 -54 3 -73 9 -104 32 -97 75 -84 235 26 294 38 20 53
23 109 19 36 -3 76 -9 90 -13 22 -7 21 -4 -13 30 -103 107 -102 237 2 306 52
35 121 40 178 14z m-1241 -1321 c19 -20 24 -36 22 -62 -3 -35 -5 -36 -48 -41
-30 -4 -67 -20 -112 -50 -37 -24 -66 -46 -64 -48 10 -9 164 22 192 39 43 26
59 24 83 -10 25 -34 27 -74 6 -91 -13 -11 -23 -11 -55 0 -50 16 -173 8 -237
-16 l-46 -18 -29 33 c-46 51 -37 79 37 115 41 19 82 51 130 101 39 41 76 74
83 74 7 1 24 -11 38 -26z m2783 -16 c21 -19 73 -48 117 -65 112 -46 129 -55
132 -77 1 -11 -4 -29 -12 -40 -13 -18 -29 -21 -153 -25 l-138 -5 50 -23 c28
-13 77 -26 110 -30 l60 -7 3 -38 c4 -45 -19 -87 -48 -87 -11 0 -37 16 -58 35
-48 43 -122 75 -173 75 -57 0 -79 15 -79 51 0 32 15 69 34 81 6 4 67 8 136 9
l125 0 -45 21 c-25 12 -66 22 -92 23 -26 1 -54 8 -63 15 -22 18 -19 76 5 100
28 28 47 25 89 -13z m-2589 -372 c30 -15 45 -48 38 -81 -3 -19 -14 -26 -80
-49 -42 -15 -91 -55 -155 -129 -28 -33 -38 -33 -74 4 -22 22 -29 37 -27 57 3
24 11 30 60 46 55 17 99 53 175 141 26 30 26 30 63 11z m2328 -24 c8 -4 23
-25 36 -45 28 -46 115 -112 160 -120 20 -4 40 -15 46 -26 15 -28 -12 -87 -46
-102 -24 -11 -28 -10 -48 16 -42 57 -128 136 -154 141 -53 11 -77 29 -80 61
-2 25 4 37 28 58 34 28 39 30 58 17z m-188 -211 c11 -6 24 -29 31 -53 15 -56
71 -131 119 -158 22 -12 42 -28 44 -36 8 -21 -18 -67 -47 -82 -42 -22 -60 -11
-79 49 -24 73 -30 77 -72 50 -52 -32 -48 -50 22 -94 49 -31 51 -43 17 -85 -49
-57 -86 -50 -105 19 -15 57 -71 132 -118 158 -22 13 -44 32 -47 43 -13 39 51
100 89 86 16 -6 20 -15 46 -84 15 -39 25 -41 65 -9 25 20 28 28 19 43 -6 9
-23 24 -39 33 -43 24 -53 45 -35 77 9 15 27 33 40 40 30 15 27 15 50 3z
m-1893 -27 c49 -23 75 -68 69 -116 -5 -47 -31 -77 -63 -77 -64 0 -82 44 -37
91 29 30 25 49 -11 49 -47 0 -145 -109 -145 -161 0 -20 8 -34 26 -45 23 -16
26 -16 41 -1 15 15 14 17 -10 26 -15 6 -27 16 -27 22 0 15 29 49 42 49 14 0
98 -81 98 -95 0 -7 -16 -27 -35 -44 -77 -67 -201 -23 -221 77 -15 75 44 174
128 216 60 30 96 32 145 9z m327 -204 c71 -23 136 -71 136 -99 0 -49 -67 -50
-96 0 -10 16 -25 32 -33 35 -20 8 -51 -30 -51 -62 0 -23 3 -24 43 -21 40 3 42
2 45 -28 2 -19 -4 -39 -17 -55 l-20 -24 -36 35 c-35 34 -37 34 -51 16 -7 -11
-17 -35 -20 -54 -5 -28 -3 -38 12 -49 11 -8 28 -11 39 -7 11 3 34 7 50 8 27 1
30 -2 33 -31 2 -25 -2 -35 -21 -48 -23 -15 -29 -14 -88 5 -92 31 -149 66 -149
92 0 12 16 38 35 58 40 41 75 130 75 189 0 28 5 43 18 50 23 14 23 14 96 -10z
m1184 -39 c59 -36 64 -108 10 -129 -31 -12 -50 1 -64 41 -7 22 -17 33 -30 33
-16 0 -20 -8 -22 -48 -4 -60 22 -130 59 -162 37 -31 65 -23 90 26 13 26 26 39
39 39 20 0 25 -13 22 -55 -7 -87 -125 -135 -203 -82 -123 82 -132 279 -16 336
52 26 73 26 115 1z m-681 -93 c36 -19 47 -41 33 -68 -15 -27 -53 -24 -89 7
-42 35 -65 29 -69 -20 -4 -51 7 -61 47 -39 31 18 32 17 47 -2 15 -20 12 -59
-8 -82 -7 -9 -18 -8 -46 7 -48 26 -50 26 -58 -16 -13 -70 30 -107 80 -69 31
23 65 19 72 -9 8 -32 -11 -64 -42 -72 -33 -8 -151 5 -191 21 -39 17 -42 37
-12 95 23 45 31 137 16 201 -7 29 -5 40 9 54 15 15 30 17 99 13 45 -3 95 -13
112 -21z"/>
<path d="M2425 2686 c-91 -43 -138 -116 -138 -216 0 -128 102 -230 233 -230
168 0 281 171 216 325 -35 82 -128 145 -216 145 -27 0 -66 -10 -95 -24z"/>
</g>
</svg>
